<svg width="44" height="44" viewBox="0 0 44 44" fill="none" xmlns="http://www.w3.org/2000/svg">
<path d="M40 24C40 27.9556 38.827 31.8224 36.6294 35.1114C34.4318 38.4004 31.3082 40.9638 27.6537 42.4776C23.9991 43.9913 19.9778 44.3874 16.0982 43.6157C12.2186 42.844 8.65491 40.9392 5.85786 38.1421C3.06081 35.3451 1.156 31.7814 0.384294 27.9018C-0.38741 24.0222 0.00865672 20.0009 1.52241 16.3463C3.03616 12.6918 5.59961 9.56824 8.8886 7.37061C12.1776 5.17298 16.0444 4 20 4V24H40Z" fill="currentcolor"/>
<path d="M44 20C44 17.3736 43.4827 14.7728 42.4776 12.3463C41.4725 9.91982 39.9993 7.71504 38.1421 5.85786C36.285 4.00069 34.0802 2.5275 31.6537 1.52241C29.2272 0.517315 26.6264 -1.14805e-07 24 0V20H44Z" fill="currentcolor"/>
</svg>
